<svg width="256" height="256" viewBox="0 0 256 256" fill="none" xmlns="http://www.w3.org/2000/svg">
  <rect width="256" height="256" fill="none"/>
  <!-- Shopping bag -->
  <path d="M60 80L196 80L186 200L70 200L60 80Z" fill="#FFFFFF" stroke="#E5E7EB" stroke-width="2"/>
  <path d="M90 80V70C90 55 105 40 128 40C151 40 166 55 166 70V80" stroke="#9CA3AF" stroke-width="2" fill="none"/>
  <!-- Shopping items -->
  <rect x="80" y="100" width="20" height="30" rx="4" fill="#3B82F6"/>
  <rect x="110" y="110" width="15" height="25" rx="3" fill="#EF4444"/>
  <rect x="135" y="105" width="18" height="28" rx="4" fill="#10B981"/>
  <rect x="160" y="115" width="16" height="20" rx="3" fill="#F59E0B"/>
  <!-- Handle -->
  <path d="M90 80C90 75 95 70 100 70L156 70C161 70 166 75 166 80" stroke="#6B7280" stroke-width="3" fill="none"/>
</svg>